<svg width="19" height="18" viewBox="0 0 19 18" fill="none" xmlns="http://www.w3.org/2000/svg">
<path d="M12.1079 3.47363H4.20515C3.46361 3.47363 2.86133 4.07592 2.86133 4.81745V16.1564C2.86133 16.8979 3.46361 17.5002 4.20515 17.5002H12.1079C12.8495 17.5002 13.4518 16.8979 13.4518 16.1564V4.81745C13.4483 4.07592 12.846 3.47363 12.1079 3.47363ZM12.5083 16.1529C12.5083 16.3757 12.3273 16.5567 12.1045 16.5567H4.20167C3.97886 16.5567 3.79783 16.3757 3.79783 16.1529V4.81745C3.79783 4.59464 3.97886 4.41361 4.20167 4.41361H12.1045C12.3273 4.41361 12.5083 4.59464 12.5083 4.81745V16.1529Z" fill="#202325" stroke="#202325" stroke-width="0.4"/>
<path d="M15.1294 0.5H7.22663C6.4851 0.5 5.88281 1.10228 5.88281 1.84382C5.88281 2.10493 6.0917 2.31381 6.3528 2.31381C6.61391 2.31381 6.82279 2.10493 6.82279 1.84382C6.82279 1.62101 7.00382 1.43998 7.22663 1.43998H15.1294C15.3522 1.43998 15.5333 1.62101 15.5333 1.84382V13.1827C15.5333 13.4056 15.3522 13.5866 15.1294 13.5866C14.8683 13.5866 14.6594 13.7955 14.6594 14.0566C14.6594 14.3177 14.8683 14.5266 15.1294 14.5266C15.871 14.5266 16.4732 13.9243 16.4732 13.1827V1.84382C16.4732 1.10228 15.871 0.5 15.1294 0.5Z" fill="#202325" stroke="#202325" stroke-width="0.4"/>
</svg>
