<svg width="19" height="18" viewBox="0 0 19 18" fill="none" xmlns="http://www.w3.org/2000/svg">
<g clip-path="url(#clip0_4381_68607)">
<path fill-rule="evenodd" clip-rule="evenodd" d="M9.33429 3.13823C6.09667 3.13823 3.47222 5.76268 3.47222 9.0003C3.47222 12.2379 6.09667 14.8624 9.33429 14.8624C12.5719 14.8624 15.1964 12.2379 15.1964 9.0003C15.1964 5.76268 12.5719 3.13823 9.33429 3.13823ZM2.2998 9.0003C2.2998 5.11551 5.44949 1.96582 9.33429 1.96582C13.2191 1.96582 16.3688 5.11551 16.3688 9.0003C16.3688 12.8851 13.2191 16.0348 9.33429 16.0348C5.44949 16.0348 2.2998 12.8851 2.2998 9.0003Z" fill="#202325"/>
<path fill-rule="evenodd" clip-rule="evenodd" d="M9.33398 0.5C9.48946 0.5 9.63856 0.561761 9.7485 0.671696C9.85843 0.781631 9.92019 0.930735 9.92019 1.08621V4.01724C9.92019 4.17271 9.85843 4.32182 9.7485 4.43175C9.63856 4.54169 9.48946 4.60345 9.33398 4.60345C9.17851 4.60345 9.02941 4.54169 8.91947 4.43175C8.80954 4.32182 8.74778 4.17271 8.74778 4.01724V1.08621C8.74778 0.930735 8.80954 0.781631 8.91947 0.671696C9.02941 0.561761 9.17851 0.5 9.33398 0.5ZM0.833984 9C0.833984 8.84453 0.895745 8.69543 1.00568 8.58549C1.11562 8.47555 1.26472 8.41379 1.42019 8.41379H4.35123C4.5067 8.41379 4.6558 8.47555 4.76574 8.58549C4.87567 8.69543 4.93743 8.84453 4.93743 9C4.93743 9.15547 4.87567 9.30458 4.76574 9.41451C4.6558 9.52445 4.5067 9.58621 4.35123 9.58621H1.42019C1.26472 9.58621 1.11562 9.52445 1.00568 9.41451C0.895745 9.30458 0.833984 9.15547 0.833984 9ZM9.33398 13.3966C9.48946 13.3966 9.63856 13.4583 9.7485 13.5682C9.85843 13.6782 9.92019 13.8273 9.92019 13.9828V16.9138C9.92019 17.0693 9.85843 17.2184 9.7485 17.3283C9.63856 17.4382 9.48946 17.5 9.33398 17.5C9.17851 17.5 9.02941 17.4382 8.91947 17.3283C8.80954 17.2184 8.74778 17.0693 8.74778 16.9138V13.9828C8.74778 13.8273 8.80954 13.6782 8.91947 13.5682C9.02941 13.4583 9.17851 13.3966 9.33398 13.3966ZM13.7305 9C13.7305 8.84453 13.7923 8.69543 13.9022 8.58549C14.0122 8.47555 14.1613 8.41379 14.3167 8.41379H17.2478C17.4032 8.41379 17.5524 8.47555 17.6623 8.58549C17.7722 8.69543 17.834 8.84453 17.834 9C17.834 9.15547 17.7722 9.30458 17.6623 9.41451C17.5524 9.52445 17.4032 9.58621 17.2478 9.58621H14.3167C14.1613 9.58621 14.0122 9.52445 13.9022 9.41451C13.7923 9.30458 13.7305 9.15547 13.7305 9ZM9.33398 7.24138C8.86757 7.24138 8.42026 7.42666 8.09045 7.75647C7.76065 8.08627 7.57536 8.53358 7.57536 9C7.57536 9.46642 7.76065 9.91373 8.09045 10.2435C8.42026 10.5733 8.86757 10.7586 9.33398 10.7586C9.8004 10.7586 10.2477 10.5733 10.5775 10.2435C10.9073 9.91373 11.0926 9.46642 11.0926 9C11.0926 8.53358 10.9073 8.08627 10.5775 7.75647C10.2477 7.42666 9.8004 7.24138 9.33398 7.24138ZM6.40295 9C6.40295 8.22264 6.71175 7.47712 7.26143 6.92745C7.81111 6.37777 8.55663 6.06897 9.33398 6.06897C10.1113 6.06897 10.8569 6.37777 11.4065 6.92745C11.9562 7.47712 12.265 8.22264 12.265 9C12.265 9.77736 11.9562 10.5229 11.4065 11.0726C10.8569 11.6222 10.1113 11.931 9.33398 11.931C8.55663 11.931 7.81111 11.6222 7.26143 11.0726C6.71175 10.5229 6.40295 9.77736 6.40295 9Z" fill="#202325"/>
</g>
<defs>
<clipPath id="clip0_4381_68607">
<rect width="18" height="18" fill="white" transform="translate(0.333984)"/>
</clipPath>
</defs>
</svg>
