<svg width="32" height="32" viewBox="0 0 32 32" fill="none" xmlns="http://www.w3.org/2000/svg">
<path d="M23.071 23.0707C22.8878 23.2539 22.6394 23.3568 22.3804 23.3568C22.1214 23.3568 21.873 23.2539 21.6899 23.0707L8.92882 10.3097C8.74567 10.1265 8.64279 9.87814 8.64279 9.61914C8.64279 9.36014 8.74567 9.11175 8.92882 8.92861C9.11196 8.74547 9.36035 8.64258 9.61935 8.64258C9.87835 8.64258 10.1267 8.74547 10.3099 8.92861L23.071 21.6897C23.2541 21.8728 23.357 22.1212 23.357 22.3802C23.357 22.6392 23.2541 22.8876 23.071 23.0707Z" fill="#404446"/>
<path d="M23.071 10.3103L10.3099 23.0714C10.1267 23.2545 9.87835 23.3574 9.61935 23.3574C9.36035 23.3574 9.11196 23.2545 8.92882 23.0714C8.74567 22.8883 8.64279 22.6399 8.64279 22.3809C8.64279 22.1219 8.74567 21.8735 8.92882 21.6903L21.6899 8.92926C21.873 8.74612 22.1214 8.64323 22.3804 8.64323C22.6394 8.64323 22.8878 8.74612 23.071 8.92926C23.2541 9.1124 23.357 9.36079 23.357 9.61979C23.357 9.87879 23.2541 10.1272 23.071 10.3103Z" fill="#404446"/>
<rect x="0.75" y="0.75" width="30.5" height="30.5" rx="15.25" stroke="#404446" stroke-width="1.5"/>
</svg>
