<svg width="18" height="18" viewBox="0 0 18 18" fill="none" xmlns="http://www.w3.org/2000/svg">
<g clip-path="url(#clip0_4376_68566)">
<path fill-rule="evenodd" clip-rule="evenodd" d="M8.48514 0.713073C8.62175 0.576636 8.80693 0.5 9 0.5C9.19307 0.5 9.37825 0.576636 9.51486 0.713073L13.4006 4.59879C13.5293 4.7369 13.5993 4.91957 13.596 5.10832C13.5927 5.29707 13.5162 5.47716 13.3827 5.61065C13.2492 5.74413 13.0691 5.8206 12.8804 5.82393C12.6916 5.82726 12.509 5.7572 12.3709 5.6285L9.72857 2.98622V12.8851C9.72857 13.0783 9.65181 13.2636 9.51518 13.4003C9.37854 13.5369 9.19323 13.6136 9 13.6136C8.80677 13.6136 8.62146 13.5369 8.48482 13.4003C8.34819 13.2636 8.27143 13.0783 8.27143 12.8851V2.98622L5.62914 5.6285C5.49103 5.7572 5.30836 5.82726 5.11961 5.82393C4.93086 5.8206 4.75077 5.74413 4.61728 5.61065C4.48379 5.47716 4.40733 5.29707 4.404 5.10832C4.40067 4.91957 4.47073 4.7369 4.59943 4.59879L8.48514 0.713073ZM1.22857 9.24222C1.4218 9.24222 1.60712 9.31898 1.74375 9.45561C1.88038 9.59224 1.95714 9.77756 1.95714 9.97079V14.8279C1.95714 15.4982 2.50114 16.0422 3.17143 16.0422H14.8286C15.4989 16.0422 16.0429 15.4982 16.0429 14.8279V9.97079C16.0429 9.77756 16.1196 9.59224 16.2563 9.45561C16.3929 9.31898 16.5782 9.24222 16.7714 9.24222C16.9647 9.24222 17.15 9.31898 17.2866 9.45561C17.4232 9.59224 17.5 9.77756 17.5 9.97079V14.8279C17.5 15.5364 17.2185 16.2159 16.7176 16.7169C16.2166 17.2179 15.5371 17.4994 14.8286 17.4994H3.17143C2.46292 17.4994 1.78343 17.2179 1.28244 16.7169C0.781453 16.2159 0.5 15.5364 0.5 14.8279V9.97079C0.5 9.77756 0.57676 9.59224 0.713394 9.45561C0.850027 9.31898 1.03534 9.24222 1.22857 9.24222Z" fill="#202325"/>
</g>
<defs>
<clipPath id="clip0_4376_68566">
<rect width="18" height="18" fill="white"/>
</clipPath>
</defs>
</svg>
