<svg width="24" height="24" viewBox="0 0 24 24" fill="none" xmlns="http://www.w3.org/2000/svg">
<path d="M13.333 3C13.8853 3 14.333 3.44772 14.333 4V20C14.333 20.5523 13.8853 21 13.333 21C12.6915 21 12.0752 20.7509 11.6139 20.3052L6.12314 15H3.33301C2.22844 15 1.33301 14.1046 1.33301 13V11C1.33301 9.89543 2.22844 9 3.33301 9H6.09801L11.6125 3.6934C12.0748 3.24852 12.6914 3 13.333 3ZM18.7171 6.34315C19.0685 5.99168 19.6384 5.99168 19.9899 6.34315C23.1141 9.46734 23.1141 14.5327 19.9899 17.6569C19.6384 18.0083 19.0685 18.0083 18.7171 17.6569C18.3656 17.3054 18.3656 16.7355 18.7171 16.3841C21.1383 13.9628 21.1383 10.0372 18.7171 7.61594C18.3656 7.26447 18.3656 6.69462 18.7171 6.34315ZM16.1715 8.88873C16.523 8.53726 17.0928 8.53726 17.4443 8.88873C19.1626 10.607 19.1626 13.393 17.4443 15.1113C17.0928 15.4627 16.523 15.4627 16.1715 15.1113C15.82 14.7598 15.82 14.1899 16.1715 13.8385C17.1868 12.8231 17.1868 11.1769 16.1715 10.1615C15.82 9.81005 15.82 9.2402 16.1715 8.88873Z" fill="#404040"/>
</svg>
